<svg version="1.1" id="Layer_1" xmlns="http://www.w3.org/2000/svg" xmlns:xlink="http://www.w3.org/1999/xlink" x="0px" y="0px"
	 width="768px" height="712px">
<g opacity="0.3">
	<g opacity="0.6">
		<circle fill="#1A9590" cx="593.678" cy="88.883" r="57.062"/>
		<path fill="#1A9590" d="M438.815,322.776c-22.818,0.253-41.523-18.044-41.771-40.865c-0.249-22.818,18.046-41.521,40.866-41.771
			c22.819-0.248,41.521,18.047,41.771,40.867C479.933,303.826,461.634,322.529,438.815,322.776z"/>
		<circle fill="#1A9590" cx="674.042" cy="238.538" r="40.337"/>
		<path fill="#1A9590" d="M577.104,372.428c-20.647,0.226-37.568-16.33-37.794-36.976c-0.224-20.646,16.327-37.566,36.978-37.792
			c20.644-0.229,37.564,16.327,37.789,36.975C614.304,355.278,597.751,372.199,577.104,372.428z"/>
		<path fill="#1A9590" d="M437.231,178.22c-21.477,0.234-39.076-16.985-39.314-38.463c-0.233-21.476,16.986-39.077,38.464-39.312
			c21.478-0.237,39.08,16.983,39.313,38.46C475.929,160.384,458.712,177.985,437.231,178.22z"/>
		<path fill="#1A9590" d="M536.828,228.233c-10.323,0.115-18.784-8.163-18.897-18.485c-0.113-10.326,8.164-18.786,18.487-18.898
			s18.784,8.166,18.896,18.486C555.427,219.662,547.151,228.123,536.828,228.233z"/>
		<circle fill="#1A9590" cx="240.86" cy="80.941" r="57.063"/>
		<circle fill="#1A9590" cx="85.545" cy="273.518" r="41.321"/>
		<path fill="#1A9590" d="M321.664,270.929c-22.275,0.247-40.533-17.614-40.776-39.892c-0.245-22.276,17.618-40.531,39.892-40.777
			c22.279-0.244,40.534,17.617,40.778,39.896C361.801,252.432,343.94,270.687,321.664,270.929z"/>
		<circle fill="#1A9590" cx="223.877" cy="327.1" r="37.386"/>
		<circle fill="#1A9590" cx="83.989" cy="131.39" r="38.89"/>
		<path fill="#1A9590" d="M184.007,220.293c-10.32,0.114-18.782-8.164-18.896-18.489c-0.111-10.32,8.167-18.78,18.488-18.894
			c10.323-0.113,18.783,8.164,18.896,18.484C202.608,211.717,194.333,220.178,184.007,220.293z"/>
		<path fill="#1A9590" d="M683.451,455.876c-31.51,0.346-57.338-24.921-57.683-56.436c-0.344-31.51,24.923-57.338,56.433-57.683
			c31.514-0.343,57.34,24.922,57.686,56.434S714.962,455.533,683.451,455.876z"/>
		<path fill="#FFD33F" d="M527.964,632.713c-22.815,0.25-41.518-18.047-41.771-40.864c-0.249-22.82,18.046-41.525,40.866-41.773
			c22.821-0.252,41.522,18.046,41.773,40.866C569.084,613.763,550.785,632.464,527.964,632.713z"/>
		<circle fill="#1A9590" cx="68.601" cy="425.944" r="40.338"/>
		<path fill="#1A9590" d="M526.383,488.155c-21.479,0.236-39.079-16.986-39.313-38.463c-0.236-21.474,16.982-39.078,38.461-39.312
			c21.478-0.236,39.079,16.986,39.313,38.461S547.86,487.921,526.383,488.155z"/>
		<path fill="#1A9590" d="M625.978,538.168c-10.321,0.113-18.783-8.162-18.896-18.486c-0.114-10.321,8.165-18.785,18.485-18.895
			c10.323-0.115,18.784,8.162,18.896,18.484C644.577,529.596,636.303,538.057,625.978,538.168z"/>
		<circle fill="#1A9590" cx="351.485" cy="399.495" r="57.063"/>
		<path fill="#FFD33F" d="M196.624,633.389c-22.818,0.254-41.521-18.044-41.771-40.865c-0.249-22.818,18.046-41.521,40.866-41.771
			c22.819-0.248,41.52,18.051,41.771,40.867C237.74,614.438,219.444,633.138,196.624,633.389z"/>
		<circle fill="#FFD33F" cx="431.848" cy="549.151" r="40.338"/>
		<path fill="#FFD33F" d="M334.914,683.038c-20.649,0.225-37.567-16.33-37.793-36.974c-0.226-20.646,16.326-37.566,36.974-37.792
			c20.648-0.229,37.567,16.326,37.792,36.973C372.116,665.892,355.561,682.814,334.914,683.038z"/>
		<path fill="#1A9590" d="M195.041,488.832c-21.479,0.236-39.081-16.984-39.316-38.462c-0.235-21.476,16.986-39.078,38.465-39.315
			c21.477-0.234,39.076,16.988,39.311,38.466C233.736,470.994,216.519,488.598,195.041,488.832z"/>
		<path fill="#FFD33F" d="M294.636,538.849c-10.322,0.111-18.785-8.166-18.897-18.49c-0.112-10.319,8.165-18.78,18.487-18.896
			c10.323-0.113,18.784,8.165,18.896,18.487C313.235,530.272,304.958,538.732,294.636,538.849z"/>
	</g>
	<path opacity="0.6" fill="#FFD33F" d="M675.912,613.854c-16.372,0.182-29.766-10.583-29.919-24.038
		c-0.145-13.455,13.012-24.511,29.387-24.69c16.376-0.179,39.342,20.421,39.488,33.877
		C715.017,612.457,692.29,613.675,675.912,613.854z"/>
	<path opacity="0.6" fill="#FFD33F" d="M73.073,619.138c16.373,0.181,29.793-12.948,29.977-29.322
		c0.178-16.378-12.952-29.8-29.328-29.978c-16.375-0.18-39.39,24.943-39.571,41.32C33.973,617.534,56.697,618.96,73.073,619.138z"/>
</g>
</svg>
