<?xml version="1.0" encoding="utf-8"?>
<!-- Generator: Adobe Illustrator 16.0.0, SVG Export Plug-In . SVG Version: 6.00 Build 0)  -->
<!DOCTYPE svg PUBLIC "-//W3C//DTD SVG 1.1//EN" "http://www.w3.org/Graphics/SVG/1.1/DTD/svg11.dtd">
<svg version="1.1" id="Layer_1" xmlns="http://www.w3.org/2000/svg" xmlns:xlink="http://www.w3.org/1999/xlink" x="0px" y="0px"
	 width="53.45px" height="53.45px" viewBox="0 0 53.45 53.45" enable-background="new 0 0 53.45 53.45" xml:space="preserve">
<g>
	<circle fill="#C069A7" cx="27.43" cy="26.725" r="14.125"/>
	<g>
		<g>
			<path fill="#FFFFFF" d="M31.403,22.98v7.785c0,0.229-0.193,0.422-0.423,0.422c-0.229,0-0.422-0.193-0.422-0.422v-1.286
				c-0.74,1.021-1.92,1.708-3.241,1.708c-2.271,0-4.085-1.955-4.085-4.314s1.813-4.315,4.085-4.315c1.321,0,2.501,0.669,3.241,1.691
				V22.98c0-0.247,0.193-0.422,0.422-0.422C31.21,22.558,31.403,22.734,31.403,22.98z M30.559,26.873
				c0-1.938-1.462-3.487-3.241-3.487c-1.761,0-3.24,1.55-3.24,3.487c0,1.937,1.479,3.469,3.24,3.469
				C29.097,30.342,30.559,28.81,30.559,26.873z"/>
			<path fill="#FFFFFF" d="M30.98,31.652c-0.489,0-0.887-0.398-0.887-0.887v-0.124c-0.791,0.646-1.771,1.011-2.776,1.011
				c-2.509,0-4.55-2.144-4.55-4.779s2.041-4.779,4.55-4.779c1.01,0,1.988,0.36,2.776,0.997v-0.11c0-0.497,0.39-0.887,0.887-0.887
				c0.498,0,0.887,0.39,0.887,0.887v7.785C31.867,31.254,31.47,31.652,30.98,31.652z M27.317,23.85c-1.53,0-2.775,1.356-2.775,3.023
				c0,1.657,1.245,3.005,2.775,3.005c1.531,0,2.776-1.348,2.776-3.005C30.094,25.206,28.849,23.85,27.317,23.85z M30.938,27.705
				c-0.057,0.281-0.143,0.552-0.254,0.808l0.254-0.351V27.705z M30.674,25.199c0.116,0.265,0.206,0.545,0.265,0.837v-0.471
				L30.674,25.199z"/>
		</g>
	</g>
	<circle fill="#BBD8E4" cx="27.43" cy="26.726" r="1.568"/>
	<path fill="#BBD8E4" d="M30.34,32.034c-0.313-0.314-0.82,1.868-0.109,3.035c0.712,1.167,1.891,0.759,1.891,0.759
		s0.631-0.584,0.455-0.759C32.401,34.895,31.178,32.871,30.34,32.034z"/>
	<path fill="#BBD8E4" d="M24.519,32.034c0.314-0.314,0.82,1.868,0.109,3.035s-1.891,0.759-1.891,0.759s-0.631-0.584-0.455-0.759
		S23.682,32.871,24.519,32.034z"/>
	<path fill="#BBD8E4" d="M27.571,32.465c-0.349,0.392-1.985,2.324-1.644,3.433s4.074,0.94,3.357-0.573S27.571,32.465,27.571,32.465z
		"/>
	<path fill="#BBD8E4" d="M30.36,21.82c-0.316,0.317-0.826-1.88-0.11-3.056C30.967,17.589,32.152,18,32.152,18
		s0.637,0.587,0.46,0.764C32.435,18.94,31.203,20.978,30.36,21.82z"/>
	<path fill="#BBD8E4" d="M24.498,21.82c0.316,0.317,0.826-1.88,0.11-3.056C23.893,17.589,22.706,18,22.706,18
		s-0.636,0.587-0.46,0.764C22.423,18.94,23.655,20.978,24.498,21.82z"/>
	<path fill="#BBD8E4" d="M27.572,21.388c-0.351-0.396-2-2.341-1.655-3.457c0.345-1.116,4.103-0.946,3.381,0.578
		C28.576,20.033,27.572,21.388,27.572,21.388z"/>
</g>
</svg>
